<svg width="96" height="96" viewBox="0 0 96 96" fill="none" xmlns="http://www.w3.org/2000/svg">
  <rect width="96" height="96" rx="24" fill="#000000" />
  <path
    d="M30 62c12.5 6 28.5 6 36-10 5.5-12 0-22-8-24-8-2-12.5 4-15 10-2.5 6-8 11-17 8-2.286-.571-6 2.5-4 6 1.5 2.5 4.5 7.5 8 9z"
    fill="url(#paint0_linear)"
  />
  <path
    d="M28 38c6-8 14-12 24-12 16 0 26 12.667 26 24 0 14-12 28-30 28-12 0-22-6-26-16"
    stroke="url(#paint1_linear)"
    stroke-width="6"
    stroke-linecap="round"
  />
  <defs>
    <linearGradient id="paint0_linear" x1="28" y1="28" x2="68" y2="72" gradientUnits="userSpaceOnUse">
      <stop stop-color="#d4af38" />
      <stop offset="0.5" stop-color="#b38518" />
      <stop offset="1" stop-color="#f2d680" />
    </linearGradient>
    <linearGradient id="paint1_linear" x1="26" y1="26" x2="74" y2="74" gradientUnits="userSpaceOnUse">
      <stop stop-color="#d4af38" />
      <stop offset="1" stop-color="#9c7b22" />
    </linearGradient>
  </defs>
</svg>
